<?xml version="1.0" encoding="UTF-8" standalone="no"?>
<!DOCTYPE svg PUBLIC "-//W3C//DTD SVG 1.1//EN"
 "http://www.w3.org/Graphics/SVG/1.1/DTD/svg11.dtd">
<!-- Generated by graphviz version 2.43.0 (0)
 -->
<!-- Title: G Pages: 1 -->
<svg width="1588pt" height="682pt"
 viewBox="0.00 0.00 1587.60 682.10" xmlns="http://www.w3.org/2000/svg" xmlns:xlink="http://www.w3.org/1999/xlink">
<g id="graph0" class="graph" transform="scale(1 1) rotate(0) translate(28.8 653.3)">
<title>G</title>
<polygon fill="white" stroke="transparent" points="-28.8,28.8 -28.8,-653.3 1558.8,-653.3 1558.8,28.8 -28.8,28.8"/>
<text text-anchor="start" x="560.5" y="-605.5" font-family="DejaVu Sans" font-weight="bold" font-size="20.00">DFD mức 2 – 4.0 Notification Service</text>
<!-- OS -->
<g id="node1" class="node">
<title>OS</title>
<polygon fill="#fdebd3" stroke="black" stroke-width="2" points="130,-485.5 0,-485.5 0,-445.5 130,-445.5 130,-485.5"/>
<text text-anchor="start" x="18" y="-467.9" font-family="DejaVu Sans" font-weight="bold" font-size="12.00">Order Service</text>
<text text-anchor="start" x="51.5" y="-457.5" font-family="DejaVu Sans" font-weight="bold" font-size="10.00">(3.0)</text>
</g>
<!-- P41 -->
<g id="node5" class="node">
<title>P41</title>
<path fill="#ffffff" stroke="transparent" d="M304.1,-432C304.1,-432 373.1,-432 373.1,-432 379.1,-432 385.1,-438 385.1,-444 385.1,-444 385.1,-487 385.1,-487 385.1,-493 379.1,-499 373.1,-499 373.1,-499 304.1,-499 304.1,-499 298.1,-499 292.1,-493 292.1,-487 292.1,-487 292.1,-444 292.1,-444 292.1,-438 298.1,-432 304.1,-432"/>
<polyline fill="none" stroke="black" points="293.6,-470.5 384.6,-470.5 "/>
<text text-anchor="start" x="328.1" y="-481.9" font-family="DejaVu Sans" font-weight="bold" font-size="12.00">4.1</text>
<text text-anchor="start" x="300.1" y="-454.9" font-family="DejaVu Sans" font-size="12.00">Nhận sự kiện</text>
<text text-anchor="start" x="299.6" y="-441.9" font-family="DejaVu Sans" font-size="12.00">(khóa nội bộ)</text>
<path fill="none" stroke="black" d="M304.1,-432C304.1,-432 373.1,-432 373.1,-432 379.1,-432 385.1,-438 385.1,-444 385.1,-444 385.1,-487 385.1,-487 385.1,-493 379.1,-499 373.1,-499 373.1,-499 304.1,-499 304.1,-499 298.1,-499 292.1,-493 292.1,-487 292.1,-487 292.1,-444 292.1,-444 292.1,-438 298.1,-432 304.1,-432"/>
</g>
<!-- OS&#45;&gt;P41 -->
<g id="edge1" class="edge">
<title>OS&#45;&gt;P41</title>
<path fill="none" stroke="#333333" d="M130.19,-478.5C177.06,-481.39 239.55,-481.15 283.84,-477.78"/>
<polygon fill="#333333" stroke="#333333" points="284.15,-480.57 291.89,-477.12 283.69,-474.99 284.15,-480.57"/>
<text text-anchor="start" x="189.14" y="-472.47" font-family="DejaVu Sans" font-size="10.00">event_key, sự kiện,</text>
<text text-anchor="start" x="185.64" y="-461.47" font-family="DejaVu Sans" font-size="10.00">student_id, owner_id</text>
</g>
<!-- ND -->
<g id="node2" class="node">
<title>ND</title>
<polygon fill="#fff6d6" stroke="black" stroke-width="2" points="1270.5,-594.5 1163.5,-594.5 1163.5,-552.5 1270.5,-552.5 1270.5,-594.5"/>
<text text-anchor="start" x="1181.5" y="-576.9" font-family="DejaVu Sans" font-weight="bold" font-size="12.00">Sinh viên /</text>
<text text-anchor="start" x="1185" y="-564.9" font-family="DejaVu Sans" font-weight="bold" font-size="12.00">Chủ quán</text>
</g>
<!-- P44 -->
<g id="node8" class="node">
<title>P44</title>
<path fill="#ffffff" stroke="transparent" d="M1151.5,-180C1151.5,-180 1210.5,-180 1210.5,-180 1216.5,-180 1222.5,-186 1222.5,-192 1222.5,-192 1222.5,-235 1222.5,-235 1222.5,-241 1216.5,-247 1210.5,-247 1210.5,-247 1151.5,-247 1151.5,-247 1145.5,-247 1139.5,-241 1139.5,-235 1139.5,-235 1139.5,-192 1139.5,-192 1139.5,-186 1145.5,-180 1151.5,-180"/>
<polyline fill="none" stroke="black" points="1141,-218.5 1222,-218.5 "/>
<text text-anchor="start" x="1170.5" y="-229.9" font-family="DejaVu Sans" font-weight="bold" font-size="12.00">4.4</text>
<text text-anchor="start" x="1147" y="-202.9" font-family="DejaVu Sans" font-size="12.00">Tra cứu, lọc</text>
<text text-anchor="start" x="1154" y="-189.9" font-family="DejaVu Sans" font-size="12.00">chưa đọc</text>
<path fill="none" stroke="black" d="M1151.5,-180C1151.5,-180 1210.5,-180 1210.5,-180 1216.5,-180 1222.5,-186 1222.5,-192 1222.5,-192 1222.5,-235 1222.5,-235 1222.5,-241 1216.5,-247 1210.5,-247 1210.5,-247 1151.5,-247 1151.5,-247 1145.5,-247 1139.5,-241 1139.5,-235 1139.5,-235 1139.5,-192 1139.5,-192 1139.5,-186 1145.5,-180 1151.5,-180"/>
</g>
<!-- ND&#45;&gt;P44 -->
<g id="edge6" class="edge">
<title>ND&#45;&gt;P44</title>
<path fill="none" stroke="#333333" d="M1222.34,-552.38C1225.7,-494.42 1210.38,-332.19 1195.33,-255.14"/>
<polygon fill="#333333" stroke="#333333" points="1198.02,-254.34 1193.69,-247.06 1192.54,-255.46 1198.02,-254.34"/>
<text text-anchor="start" x="1186.63" y="-402.11" font-family="DejaVu Sans" font-size="10.00">Token</text>
</g>
<!-- P45 -->
<g id="node9" class="node">
<title>P45</title>
<path fill="#ffffff" stroke="transparent" d="M839.3,0C839.3,0 932.3,0 932.3,0 938.3,0 944.3,-6 944.3,-12 944.3,-12 944.3,-55 944.3,-55 944.3,-61 938.3,-67 932.3,-67 932.3,-67 839.3,-67 839.3,-67 833.3,-67 827.3,-61 827.3,-55 827.3,-55 827.3,-12 827.3,-12 827.3,-6 833.3,0 839.3,0"/>
<polyline fill="none" stroke="black" points="828.8,-38.5 943.8,-38.5 "/>
<text text-anchor="start" x="875.3" y="-49.9" font-family="DejaVu Sans" font-weight="bold" font-size="12.00">4.5</text>
<text text-anchor="start" x="834.8" y="-22.9" font-family="DejaVu Sans" font-size="12.00">Đánh dấu đã đọc</text>
<text text-anchor="start" x="854.8" y="-9.9" font-family="DejaVu Sans" font-size="12.00">(1 / tất cả)</text>
<path fill="none" stroke="black" d="M839.3,0C839.3,0 932.3,0 932.3,0 938.3,0 944.3,-6 944.3,-12 944.3,-12 944.3,-55 944.3,-55 944.3,-61 938.3,-67 932.3,-67 932.3,-67 839.3,-67 839.3,-67 833.3,-67 827.3,-61 827.3,-55 827.3,-55 827.3,-12 827.3,-12 827.3,-6 833.3,0 839.3,0"/>
</g>
<!-- ND&#45;&gt;P45 -->
<g id="edge11" class="edge">
<title>ND&#45;&gt;P45</title>
<path fill="none" stroke="#333333" d="M1204.02,-552.33C1154.5,-471.61 977.02,-182.22 910.88,-74.38"/>
<polygon fill="#333333" stroke="#333333" points="913.07,-72.6 906.5,-67.24 908.29,-75.53 913.07,-72.6"/>
<text text-anchor="start" x="985.23" y="-312.74" font-family="DejaVu Sans" font-size="10.00">notification_id</text>
</g>
<!-- AD -->
<g id="node3" class="node">
<title>AD</title>
<polygon fill="#fff6d6" stroke="black" stroke-width="2" points="1508.5,-339.5 1429.5,-339.5 1429.5,-303.5 1508.5,-303.5 1508.5,-339.5"/>
<text text-anchor="start" x="1447.5" y="-319.4" font-family="DejaVu Sans" font-weight="bold" font-size="12.00">Admin</text>
</g>
<!-- AD&#45;&gt;P44 -->
<g id="edge13" class="edge">
<title>AD&#45;&gt;P44</title>
<path fill="none" stroke="#333333" d="M1446.6,-303.5C1400.33,-278.51 1293.64,-237.68 1230.42,-219.97"/>
<polygon fill="#333333" stroke="#333333" points="1231,-217.23 1222.55,-217.83 1229.53,-222.63 1231,-217.23"/>
<text text-anchor="start" x="1287.32" y="-258.74" font-family="DejaVu Sans" font-size="10.00">Xem / xóa</text>
</g>
<!-- AUTHS -->
<g id="node4" class="node">
<title>AUTHS</title>
<polygon fill="#dcebfa" stroke="black" stroke-width="2" points="1530,-89.5 1408,-89.5 1408,-49.5 1530,-49.5 1530,-89.5"/>
<text text-anchor="start" x="1426" y="-71.9" font-family="DejaVu Sans" font-weight="bold" font-size="12.00">Auth Service</text>
<text text-anchor="start" x="1455.5" y="-61.5" font-family="DejaVu Sans" font-weight="bold" font-size="10.00">(1.0)</text>
</g>
<!-- AUTHS&#45;&gt;P44 -->
<g id="edge8" class="edge">
<title>AUTHS&#45;&gt;P44</title>
<path fill="none" stroke="#333333" d="M1407.69,-86.56C1354.53,-108.85 1278.71,-146.82 1229.62,-175.76"/>
<polygon fill="#333333" stroke="#333333" points="1228.01,-173.46 1222.58,-179.96 1230.88,-178.27 1228.01,-173.46"/>
<text text-anchor="start" x="1303.78" y="-133.35" font-family="DejaVu Sans" font-size="10.00">id</text>
</g>
<!-- P41&#45;&gt;OS -->
<g id="edge5" class="edge">
<title>P41&#45;&gt;OS</title>
<path fill="none" stroke="#333333" d="M291.88,-453.88C249.73,-450.1 187.06,-449.49 138.25,-452.04"/>
<polygon fill="#333333" stroke="#333333" points="138.07,-449.25 130.24,-452.5 138.38,-454.84 138.07,-449.25"/>
<text text-anchor="start" x="137.21" y="-442.53" font-family="DejaVu Sans" font-size="10.00">201 / 200 trùng</text>
</g>
<!-- P42 -->
<g id="node6" class="node">
<title>P42</title>
<path fill="#ffffff" stroke="transparent" d="M542.7,-432C542.7,-432 681.7,-432 681.7,-432 687.7,-432 693.7,-438 693.7,-444 693.7,-444 693.7,-487 693.7,-487 693.7,-493 687.7,-499 681.7,-499 681.7,-499 542.7,-499 542.7,-499 536.7,-499 530.7,-493 530.7,-487 530.7,-487 530.7,-444 530.7,-444 530.7,-438 536.7,-432 542.7,-432"/>
<polyline fill="none" stroke="black" points="532.2,-470.5 693.2,-470.5 "/>
<text text-anchor="start" x="601.7" y="-481.9" font-family="DejaVu Sans" font-weight="bold" font-size="12.00">4.2</text>
<text text-anchor="start" x="551.2" y="-454.9" font-family="DejaVu Sans" font-size="12.00">Xác định người nhận</text>
<text text-anchor="start" x="538.2" y="-441.9" font-family="DejaVu Sans" font-size="12.00">theo sự kiện + người hủy</text>
<path fill="none" stroke="black" d="M542.7,-432C542.7,-432 681.7,-432 681.7,-432 687.7,-432 693.7,-438 693.7,-444 693.7,-444 693.7,-487 693.7,-487 693.7,-493 687.7,-499 681.7,-499 681.7,-499 542.7,-499 542.7,-499 536.7,-499 530.7,-493 530.7,-487 530.7,-487 530.7,-444 530.7,-444 530.7,-438 536.7,-432 542.7,-432"/>
</g>
<!-- P41&#45;&gt;P42 -->
<g id="edge2" class="edge">
<title>P41&#45;&gt;P42</title>
<path fill="none" stroke="#333333" d="M385.32,-465.5C422.83,-465.5 476.6,-465.5 522.38,-465.5"/>
<polygon fill="#333333" stroke="#333333" points="522.53,-468.3 530.53,-465.5 522.53,-462.7 522.53,-468.3"/>
<text text-anchor="start" x="388.04" y="-468.5" font-family="DejaVu Sans" font-size="10.00">Sự kiện hợp lệ</text>
</g>
<!-- P43 -->
<g id="node7" class="node">
<title>P43</title>
<path fill="#ffffff" stroke="transparent" d="M847.3,-432C847.3,-432 924.3,-432 924.3,-432 930.3,-432 936.3,-438 936.3,-444 936.3,-444 936.3,-487 936.3,-487 936.3,-493 930.3,-499 924.3,-499 924.3,-499 847.3,-499 847.3,-499 841.3,-499 835.3,-493 835.3,-487 835.3,-487 835.3,-444 835.3,-444 835.3,-438 841.3,-432 847.3,-432"/>
<polyline fill="none" stroke="black" points="836.8,-470.5 935.8,-470.5 "/>
<text text-anchor="start" x="875.3" y="-481.9" font-family="DejaVu Sans" font-weight="bold" font-size="12.00">4.3</text>
<text text-anchor="start" x="842.8" y="-454.9" font-family="DejaVu Sans" font-size="12.00">Lưu thông báo</text>
<text text-anchor="start" x="842.8" y="-441.9" font-family="DejaVu Sans" font-size="12.00">(bỏ qua trùng)</text>
<path fill="none" stroke="black" d="M847.3,-432C847.3,-432 924.3,-432 924.3,-432 930.3,-432 936.3,-438 936.3,-444 936.3,-444 936.3,-487 936.3,-487 936.3,-493 930.3,-499 924.3,-499 924.3,-499 847.3,-499 847.3,-499 841.3,-499 835.3,-493 835.3,-487 835.3,-487 835.3,-444 835.3,-444 835.3,-438 841.3,-432 847.3,-432"/>
</g>
<!-- P42&#45;&gt;P43 -->
<g id="edge3" class="edge">
<title>P42&#45;&gt;P43</title>
<path fill="none" stroke="#333333" d="M693.92,-465.5C736.7,-465.5 788.1,-465.5 826.94,-465.5"/>
<polygon fill="#333333" stroke="#333333" points="827.02,-468.3 835.02,-465.5 827.02,-462.7 827.02,-468.3"/>
<text text-anchor="start" x="708.61" y="-457.5" font-family="DejaVu Sans" font-size="10.00">Người nhận + nội dung</text>
</g>
<!-- D6 -->
<g id="node10" class="node">
<title>D6</title>
<polygon fill="#f4f4f4" stroke="transparent" points="813.8,-220.1 813.8,-249.1 848.8,-249.1 848.8,-220.1 813.8,-220.1"/>
<polyline fill="none" stroke="black" points="848.8,-249.1 813.8,-249.1 813.8,-220.1 848.8,-220.1 "/>
<text text-anchor="start" x="821.8" y="-232.5" font-family="DejaVu Sans" font-weight="bold" font-size="12.00">D6</text>
<polyline fill="none" stroke="black" points="848.8,-220.1 958.8,-220.1 "/>
<polyline fill="none" stroke="black" points="958.8,-249.1 848.8,-249.1 "/>
<text text-anchor="start" x="856.8" y="-231.5" font-family="DejaVu Sans" font-size="12.00">NOTIFICATIONS</text>
</g>
<!-- P43&#45;&gt;D6 -->
<g id="edge4" class="edge">
<title>P43&#45;&gt;D6</title>
<path fill="none" stroke="#333333" d="M885.8,-432C885.8,-384.44 885.8,-298.62 885.8,-257.82"/>
<polygon fill="#333333" stroke="#333333" points="888.6,-257.6 885.8,-249.6 883,-257.6 888.6,-257.6"/>
<text text-anchor="start" x="788.8" y="-354.85" font-family="DejaVu Sans" font-size="10.00">INSERT OR IGNORE</text>
<text text-anchor="start" x="785.8" y="-343.85" font-family="DejaVu Sans" font-size="10.00">(event_key, user_id)</text>
</g>
<!-- P44&#45;&gt;ND -->
<g id="edge10" class="edge">
<title>P44&#45;&gt;ND</title>
<path fill="none" stroke="#333333" d="M1175.23,-247.31C1174.25,-317.51 1190.4,-478.03 1205.24,-544.18"/>
<polygon fill="#333333" stroke="#333333" points="1202.56,-545 1207.14,-552.14 1208.01,-543.71 1202.56,-545"/>
<text text-anchor="start" x="1086.64" y="-403.61" font-family="DejaVu Sans" font-size="10.00">Lịch sử, số chưa đọc</text>
</g>
<!-- P44&#45;&gt;AD -->
<g id="edge14" class="edge">
<title>P44&#45;&gt;AD</title>
<path fill="none" stroke="#333333" d="M1222.66,-241.2C1275.34,-266.27 1365.69,-300.09 1421.14,-315.46"/>
<polygon fill="#333333" stroke="#333333" points="1420.61,-318.22 1429.06,-317.59 1422.06,-312.81 1420.61,-318.22"/>
<text text-anchor="start" x="1254.67" y="-286.39" font-family="DejaVu Sans" font-size="10.00">Mọi thông báo</text>
</g>
<!-- P44&#45;&gt;AUTHS -->
<g id="edge7" class="edge">
<title>P44&#45;&gt;AUTHS</title>
<path fill="none" stroke="#333333" d="M1222.73,-204.32C1282.71,-181.35 1391.3,-126.81 1441.89,-94.01"/>
<polygon fill="#333333" stroke="#333333" points="1443.52,-96.29 1448.63,-89.53 1440.42,-91.62 1443.52,-96.29"/>
<text text-anchor="start" x="1249.23" y="-154.64" font-family="DejaVu Sans" font-size="10.00">GET /api/users/me</text>
</g>
<!-- P45&#45;&gt;D6 -->
<g id="edge12" class="edge">
<title>P45&#45;&gt;D6</title>
<path fill="none" stroke="#333333" d="M885.8,-67.24C885.8,-108.37 885.8,-176.75 885.8,-212.21"/>
<polygon fill="#333333" stroke="#333333" points="883,-212.48 885.8,-220.48 888.6,-212.48 883,-212.48"/>
<text text-anchor="start" x="818.8" y="-146.73" font-family="DejaVu Sans" font-size="10.00">status = read</text>
</g>
<!-- D6&#45;&gt;P44 -->
<g id="edge9" class="edge">
<title>D6&#45;&gt;P44</title>
<path fill="none" stroke="#333333" d="M958.39,-229.79C1012.02,-225.86 1083.64,-220.62 1130.99,-217.16"/>
<polygon fill="#333333" stroke="#333333" points="1131.47,-219.93 1139.24,-216.56 1131.06,-214.35 1131.47,-219.93"/>
<text text-anchor="start" x="990.83" y="-226.17" font-family="DejaVu Sans" font-size="10.00">TB của user</text>
</g>
</g>
</svg>
