<?xml version="1.0" encoding="UTF-8" standalone="no"?>
<!DOCTYPE svg PUBLIC "-//W3C//DTD SVG 1.1//EN"
 "http://www.w3.org/Graphics/SVG/1.1/DTD/svg11.dtd">
<!-- Generated by graphviz version 2.43.0 (0)
 -->
<!-- Title: G Pages: 1 -->
<svg width="758pt" height="568pt"
 viewBox="0.00 0.00 758.10 567.60" xmlns="http://www.w3.org/2000/svg" xmlns:xlink="http://www.w3.org/1999/xlink">
<g id="graph0" class="graph" transform="scale(1 1) rotate(0) translate(28.8 538.8)">
<title>G</title>
<polygon fill="white" stroke="transparent" points="-28.8,28.8 -28.8,-538.8 729.3,-538.8 729.3,28.8 -28.8,28.8"/>
<text text-anchor="start" x="147.25" y="-491" font-family="DejaVu Sans" font-weight="bold" font-size="20.00">ERD – Review Service (PHP · SQLite)</text>
<text text-anchor="start" x="101.75" y="-477.4" font-family="DejaVu Sans" font-size="12.00">Mỗi đơn tối đa 1 đánh giá (order_id UNIQUE); admin ẩn (status=hidden) thay vì xóa</text>
<!-- REVIEWS -->
<g id="node1" class="node">
<title>REVIEWS</title>
<polygon fill="#fbe0e0" stroke="transparent" points="187,-298 187,-325 484,-325 484,-298 187,-298"/>
<polygon fill="none" stroke="black" points="187,-298 187,-325 484,-325 484,-298 187,-298"/>
<text text-anchor="start" x="304.5" y="-309.4" font-family="DejaVu Sans" font-weight="bold" font-size="12.00">REVIEWS</text>
<polygon fill="#ffffff" stroke="transparent" points="187,-271 187,-298 279,-298 279,-271 187,-271"/>
<polygon fill="none" stroke="black" points="187,-271 187,-298 279,-298 279,-271 187,-271"/>
<text text-anchor="start" x="194" y="-281.4" font-family="DejaVu Sans" font-size="12.00">uuid</text>
<polygon fill="#ffffff" stroke="transparent" points="279,-271 279,-298 436,-298 436,-271 279,-271"/>
<polygon fill="none" stroke="black" points="279,-271 279,-298 436,-298 436,-271 279,-271"/>
<text text-anchor="start" x="286" y="-282.4" font-family="DejaVu Sans" font-weight="bold" font-size="12.00">id</text>
<polygon fill="#ffffff" stroke="transparent" points="436,-271 436,-298 484,-298 484,-271 436,-271"/>
<polygon fill="none" stroke="black" points="436,-271 436,-298 484,-298 484,-271 436,-271"/>
<text text-anchor="start" x="453.5" y="-282" font-family="DejaVu Sans" font-size="10.00">PK</text>
<polygon fill="#f6f6f6" stroke="transparent" points="187,-244 187,-271 279,-271 279,-244 187,-244"/>
<polygon fill="none" stroke="black" points="187,-244 187,-271 279,-271 279,-244 187,-244"/>
<text text-anchor="start" x="194" y="-254.4" font-family="DejaVu Sans" font-size="12.00">uuid</text>
<polygon fill="#f6f6f6" stroke="transparent" points="279,-244 279,-271 436,-271 436,-244 279,-244"/>
<polygon fill="none" stroke="black" points="279,-244 279,-271 436,-271 436,-244 279,-244"/>
<text text-anchor="start" x="286" y="-254.4" font-family="DejaVu Sans" font-size="12.00">user_id</text>
<polygon fill="#f6f6f6" stroke="transparent" points="436,-244 436,-271 484,-271 484,-244 436,-244"/>
<polygon fill="none" stroke="black" points="436,-244 436,-271 484,-271 484,-244 436,-244"/>
<text text-anchor="start" x="453" y="-255" font-family="DejaVu Sans" font-size="10.00">ref</text>
<polygon fill="#ffffff" stroke="transparent" points="187,-217 187,-244 279,-244 279,-217 187,-217"/>
<polygon fill="none" stroke="black" points="187,-217 187,-244 279,-244 279,-217 187,-217"/>
<text text-anchor="start" x="194" y="-227.4" font-family="DejaVu Sans" font-size="12.00">string</text>
<polygon fill="#ffffff" stroke="transparent" points="279,-217 279,-244 436,-244 436,-217 279,-217"/>
<polygon fill="none" stroke="black" points="279,-217 279,-244 436,-244 436,-217 279,-217"/>
<text text-anchor="start" x="286" y="-227.4" font-family="DejaVu Sans" font-size="12.00">reviewer_name</text>
<polygon fill="#ffffff" stroke="transparent" points="436,-217 436,-244 484,-244 484,-217 436,-217"/>
<polygon fill="none" stroke="black" points="436,-217 436,-244 484,-244 484,-217 436,-217"/>
<text text-anchor="start" x="458" y="-228" font-family="DejaVu Sans" font-size="10.00"> </text>
<polygon fill="#f6f6f6" stroke="transparent" points="187,-190 187,-217 279,-217 279,-190 187,-190"/>
<polygon fill="none" stroke="black" points="187,-190 187,-217 279,-217 279,-190 187,-190"/>
<text text-anchor="start" x="194" y="-200.4" font-family="DejaVu Sans" font-size="12.00">uuid</text>
<polygon fill="#f6f6f6" stroke="transparent" points="279,-190 279,-217 436,-217 436,-190 279,-190"/>
<polygon fill="none" stroke="black" points="279,-190 279,-217 436,-217 436,-190 279,-190"/>
<text text-anchor="start" x="286" y="-200.4" font-family="DejaVu Sans" font-size="12.00">restaurant_id</text>
<polygon fill="#f6f6f6" stroke="transparent" points="436,-190 436,-217 484,-217 484,-190 436,-190"/>
<polygon fill="none" stroke="black" points="436,-190 436,-217 484,-217 484,-190 436,-190"/>
<text text-anchor="start" x="453" y="-201" font-family="DejaVu Sans" font-size="10.00">ref</text>
<polygon fill="#ffffff" stroke="transparent" points="187,-163 187,-190 279,-190 279,-163 187,-163"/>
<polygon fill="none" stroke="black" points="187,-163 187,-190 279,-190 279,-163 187,-163"/>
<text text-anchor="start" x="194" y="-173.4" font-family="DejaVu Sans" font-size="12.00">string</text>
<polygon fill="#ffffff" stroke="transparent" points="279,-163 279,-190 436,-190 436,-163 279,-163"/>
<polygon fill="none" stroke="black" points="279,-163 279,-190 436,-190 436,-163 279,-163"/>
<text text-anchor="start" x="286" y="-173.4" font-family="DejaVu Sans" font-size="12.00">restaurant_name</text>
<polygon fill="#ffffff" stroke="transparent" points="436,-163 436,-190 484,-190 484,-163 436,-163"/>
<polygon fill="none" stroke="black" points="436,-163 436,-190 484,-190 484,-163 436,-163"/>
<text text-anchor="start" x="458" y="-174" font-family="DejaVu Sans" font-size="10.00"> </text>
<polygon fill="#f6f6f6" stroke="transparent" points="187,-136 187,-163 279,-163 279,-136 187,-136"/>
<polygon fill="none" stroke="black" points="187,-136 187,-163 279,-163 279,-136 187,-136"/>
<text text-anchor="start" x="194" y="-146.4" font-family="DejaVu Sans" font-size="12.00">uuid</text>
<polygon fill="#f6f6f6" stroke="transparent" points="279,-136 279,-163 436,-163 436,-136 279,-136"/>
<polygon fill="none" stroke="black" points="279,-136 279,-163 436,-163 436,-136 279,-136"/>
<text text-anchor="start" x="286" y="-146.4" font-family="DejaVu Sans" font-size="12.00">order_id</text>
<polygon fill="#f6f6f6" stroke="transparent" points="436,-136 436,-163 484,-163 484,-136 436,-136"/>
<polygon fill="none" stroke="black" points="436,-136 436,-163 484,-163 484,-136 436,-136"/>
<text text-anchor="start" x="443" y="-147" font-family="DejaVu Sans" font-size="10.00">ref, UK</text>
<polygon fill="#ffffff" stroke="transparent" points="187,-109 187,-136 279,-136 279,-109 187,-109"/>
<polygon fill="none" stroke="black" points="187,-109 187,-136 279,-136 279,-109 187,-109"/>
<text text-anchor="start" x="194" y="-119.4" font-family="DejaVu Sans" font-size="12.00">int 1–5</text>
<polygon fill="#ffffff" stroke="transparent" points="279,-109 279,-136 436,-136 436,-109 279,-109"/>
<polygon fill="none" stroke="black" points="279,-109 279,-136 436,-136 436,-109 279,-109"/>
<text text-anchor="start" x="286" y="-119.4" font-family="DejaVu Sans" font-size="12.00">rating</text>
<polygon fill="#ffffff" stroke="transparent" points="436,-109 436,-136 484,-136 484,-109 436,-109"/>
<polygon fill="none" stroke="black" points="436,-109 436,-136 484,-136 484,-109 436,-109"/>
<text text-anchor="start" x="458" y="-120" font-family="DejaVu Sans" font-size="10.00"> </text>
<polygon fill="#f6f6f6" stroke="transparent" points="187,-82 187,-109 279,-109 279,-82 187,-82"/>
<polygon fill="none" stroke="black" points="187,-82 187,-109 279,-109 279,-82 187,-82"/>
<text text-anchor="start" x="194" y="-92.4" font-family="DejaVu Sans" font-size="12.00">string ≤1000</text>
<polygon fill="#f6f6f6" stroke="transparent" points="279,-82 279,-109 436,-109 436,-82 279,-82"/>
<polygon fill="none" stroke="black" points="279,-82 279,-109 436,-109 436,-82 279,-82"/>
<text text-anchor="start" x="286" y="-92.4" font-family="DejaVu Sans" font-size="12.00">comment</text>
<polygon fill="#f6f6f6" stroke="transparent" points="436,-82 436,-109 484,-109 484,-82 436,-82"/>
<polygon fill="none" stroke="black" points="436,-82 436,-109 484,-109 484,-82 436,-82"/>
<text text-anchor="start" x="458" y="-93" font-family="DejaVu Sans" font-size="10.00"> </text>
<polygon fill="#ffffff" stroke="transparent" points="187,-55 187,-82 279,-82 279,-55 187,-55"/>
<polygon fill="none" stroke="black" points="187,-55 187,-82 279,-82 279,-55 187,-55"/>
<text text-anchor="start" x="194" y="-65.4" font-family="DejaVu Sans" font-size="12.00">enum</text>
<polygon fill="#ffffff" stroke="transparent" points="279,-55 279,-82 436,-82 436,-55 279,-55"/>
<polygon fill="none" stroke="black" points="279,-55 279,-82 436,-82 436,-55 279,-55"/>
<text text-anchor="start" x="286" y="-65.4" font-family="DejaVu Sans" font-size="12.00">status</text>
<polygon fill="#ffffff" stroke="transparent" points="436,-55 436,-82 484,-82 484,-55 436,-55"/>
<polygon fill="none" stroke="black" points="436,-55 436,-82 484,-82 484,-55 436,-55"/>
<text text-anchor="start" x="458" y="-66" font-family="DejaVu Sans" font-size="10.00"> </text>
<polygon fill="#f6f6f6" stroke="transparent" points="187,-28 187,-55 279,-55 279,-28 187,-28"/>
<polygon fill="none" stroke="black" points="187,-28 187,-55 279,-55 279,-28 187,-28"/>
<text text-anchor="start" x="194" y="-38.4" font-family="DejaVu Sans" font-size="12.00">string</text>
<polygon fill="#f6f6f6" stroke="transparent" points="279,-28 279,-55 436,-55 436,-28 279,-28"/>
<polygon fill="none" stroke="black" points="279,-28 279,-55 436,-55 436,-28 279,-28"/>
<text text-anchor="start" x="286" y="-38.4" font-family="DejaVu Sans" font-size="12.00">hidden_reason</text>
<polygon fill="#f6f6f6" stroke="transparent" points="436,-28 436,-55 484,-55 484,-28 436,-28"/>
<polygon fill="none" stroke="black" points="436,-28 436,-55 484,-55 484,-28 436,-28"/>
<text text-anchor="start" x="458" y="-39" font-family="DejaVu Sans" font-size="10.00"> </text>
<polygon fill="#ffffff" stroke="transparent" points="187,-1 187,-28 279,-28 279,-1 187,-1"/>
<polygon fill="none" stroke="black" points="187,-1 187,-28 279,-28 279,-1 187,-1"/>
<text text-anchor="start" x="194" y="-11.4" font-family="DejaVu Sans" font-size="12.00">timestamp</text>
<polygon fill="#ffffff" stroke="transparent" points="279,-1 279,-28 436,-28 436,-1 279,-1"/>
<polygon fill="none" stroke="black" points="279,-1 279,-28 436,-28 436,-1 279,-1"/>
<text text-anchor="start" x="286" y="-11.4" font-family="DejaVu Sans" font-size="12.00">created_at / updated_at</text>
<polygon fill="#ffffff" stroke="transparent" points="436,-1 436,-28 484,-28 484,-1 436,-1"/>
<polygon fill="none" stroke="black" points="436,-1 436,-28 484,-28 484,-1 436,-1"/>
<text text-anchor="start" x="458" y="-12" font-family="DejaVu Sans" font-size="10.00"> </text>
<polygon fill="none" stroke="black" points="185.5,0 185.5,-326 484.5,-326 484.5,0 185.5,0"/>
</g>
<!-- USERS -->
<g id="node2" class="node">
<title>USERS</title>
<polygon fill="#f2f2f2" stroke="transparent" points="1,-446 1,-469 179,-469 179,-446 1,-446"/>
<text text-anchor="start" x="67" y="-455.4" font-family="DejaVu Sans" font-weight="bold" font-size="12.00" fill="#555555">USERS</text>
<text text-anchor="start" x="73.5" y="-433" font-family="DejaVu Sans" font-size="10.00" fill="#666666">id (PK)</text>
<text text-anchor="start" x="6" y="-413.8" font-family="DejaVu Sans" font-style="italic" font-size="9.00" fill="#888888">thuộc Auth Service (Python · SQLite)</text>
<polygon fill="none" stroke="#888888" stroke-dasharray="5,2" points="0,-404 0,-470 180,-470 180,-404 0,-404"/>
</g>
<!-- USERS&#45;&gt;REVIEWS -->
<g id="edge1" class="edge">
<title>USERS&#45;&gt;REVIEWS</title>
<path fill="none" stroke="black" stroke-dasharray="5,2" d="M126.23,-395.78C140.22,-380.24 157.27,-361.31 175.53,-341.04"/>
<polygon fill="black" stroke="black" points="123.65,-406.86 115.47,-399.5 116.95,-397.87 125.12,-405.23 123.65,-406.86"/>
<polyline fill="none" stroke="black" points="118.83,-404 122.51,-399.91 "/>
<polygon fill="black" stroke="black" points="127.33,-402.78 119.16,-395.41 120.63,-393.78 128.8,-401.14 127.33,-402.78"/>
<polyline fill="none" stroke="black" points="122.51,-399.91 126.19,-395.83 "/>
<polygon fill="black" stroke="black" points="181.65,-334.25 192.69,-329.39 185.33,-330.16 189.01,-326.08 189.01,-326.08 189.01,-326.08 185.33,-330.16 185.33,-322.76 181.65,-334.25 181.65,-334.25"/>
<ellipse fill="none" stroke="black" cx="178.71" cy="-337.52" rx="4.4" ry="4.4"/>
<text text-anchor="middle" x="177" y="-362.2" font-family="DejaVu Sans" font-size="11.00"> writes </text>
</g>
<!-- RESTAURANTS -->
<g id="node3" class="node">
<title>RESTAURANTS</title>
<polygon fill="#f2f2f2" stroke="transparent" points="232,-446 232,-469 439,-469 439,-446 232,-446"/>
<text text-anchor="start" x="286.5" y="-455.4" font-family="DejaVu Sans" font-weight="bold" font-size="12.00" fill="#555555">RESTAURANTS</text>
<text text-anchor="start" x="319" y="-433" font-family="DejaVu Sans" font-size="10.00" fill="#666666">id (PK)</text>
<text text-anchor="start" x="237" y="-413.8" font-family="DejaVu Sans" font-style="italic" font-size="9.00" fill="#888888">thuộc Restaurant Service (Node.js · SQLite)</text>
<polygon fill="none" stroke="#888888" stroke-dasharray="5,2" points="230.5,-404 230.5,-470 439.5,-470 439.5,-404 230.5,-404"/>
</g>
<!-- RESTAURANTS&#45;&gt;REVIEWS -->
<g id="edge2" class="edge">
<title>RESTAURANTS&#45;&gt;REVIEWS</title>
<path fill="none" stroke="black" stroke-dasharray="5,2" d="M335,-392.89C335,-379.2 335,-363.1 335,-345.9"/>
<polygon fill="black" stroke="black" points="340.5,-402.9 329.5,-402.9 329.5,-400.7 340.5,-400.7 340.5,-402.9"/>
<polyline fill="none" stroke="black" points="335,-404 335,-398.5 "/>
<polygon fill="black" stroke="black" points="340.5,-397.4 329.5,-397.4 329.5,-395.2 340.5,-395.2 340.5,-397.4"/>
<polyline fill="none" stroke="black" points="335,-398.5 335,-393 "/>
<polygon fill="black" stroke="black" points="335,-337.08 339.95,-326.08 335,-331.58 335,-326.08 335,-326.08 335,-326.08 335,-331.58 330.05,-326.08 335,-337.08 335,-337.08"/>
<ellipse fill="none" stroke="black" cx="335" cy="-341.48" rx="4.4" ry="4.4"/>
<text text-anchor="middle" x="362.5" y="-362.2" font-family="DejaVu Sans" font-size="11.00"> receives </text>
</g>
<!-- ORDERS -->
<g id="node4" class="node">
<title>ORDERS</title>
<polygon fill="#f2f2f2" stroke="transparent" points="491,-446 491,-469 700,-469 700,-446 491,-446"/>
<text text-anchor="start" x="567.5" y="-455.4" font-family="DejaVu Sans" font-weight="bold" font-size="12.00" fill="#555555">ORDERS</text>
<text text-anchor="start" x="579" y="-433" font-family="DejaVu Sans" font-size="10.00" fill="#666666">id (PK)</text>
<text text-anchor="start" x="496" y="-413.8" font-family="DejaVu Sans" font-style="italic" font-size="9.00" fill="#888888">thuộc Order Service (Java Spring Boot · H2)</text>
<polygon fill="none" stroke="#888888" stroke-dasharray="5,2" points="489.5,-404 489.5,-470 700.5,-470 700.5,-404 489.5,-404"/>
</g>
<!-- ORDERS&#45;&gt;REVIEWS -->
<g id="edge3" class="edge">
<title>ORDERS&#45;&gt;REVIEWS</title>
<path fill="none" stroke="black" stroke-dasharray="5,2" d="M556.57,-395.8C539.26,-377.69 517.55,-354.98 494.54,-330.9"/>
<polygon fill="black" stroke="black" points="567.63,-399.4 559.67,-407 558.15,-405.41 566.11,-397.81 567.63,-399.4"/>
<polyline fill="none" stroke="black" points="564.41,-404 560.61,-400.02 "/>
<polygon fill="black" stroke="black" points="563.83,-395.43 555.87,-403.03 554.35,-401.44 562.31,-393.84 563.83,-395.43"/>
<polyline fill="none" stroke="black" points="560.61,-400.02 556.81,-396.05 "/>
<polygon fill="black" stroke="black" points="481.39,-325.11 489.34,-317.51 490.86,-319.1 482.91,-326.7 481.39,-325.11"/>
<polyline fill="none" stroke="black" points="484.61,-320.51 488.41,-324.49 "/>
<ellipse fill="none" stroke="black" cx="491.45" cy="-327.67" rx="4.4" ry="4.4"/>
<text text-anchor="middle" x="570.5" y="-362.2" font-family="DejaVu Sans" font-size="11.00"> reviewed_by </text>
</g>
</g>
</svg>
